<svg xmlns="http://www.w3.org/2000/svg" viewBox="0 0 24 24" width="60" height="60">
  <defs>
    <linearGradient id="bg" x1="0" y1="0" x2="1" y2="1">
      <stop offset="0%" stop-color="#0366D6"/>
      <stop offset="100%" stop-color="#4E96E8"/>
    </linearGradient>
  </defs>
  <rect x="1" y="1" width="22" height="22" rx="5" fill="url(#bg)"/>
  <g transform="translate(0.5, 0.5) scale(0.88)" fill="white">
    <path d="M7,4 L17,4 C18.1045695,4 19,4.8954305 19,6 L19,18 C19,19.1045695 18.1045695,20 17,20 L7,20 C5.8954305,20 5,19.1045695 5,18 L5,6 C5,4.8954305 5.8954305,4 7,4 Z M7.5,6 C7.22385763,6 7,6.22385763 7,6.5 L7,17.5 C7,17.7761424 7.22385763,18 7.5,18 L8.5,18 C8.77614237,18 9,17.7761424 9,17.5 L9,6.5 C9,6.22385763 8.77614237,6 8.5,6 L7.5,6 Z"/>
  </g>
</svg>
